<svg xmlns="http://www.w3.org/2000/svg" width="44" height="44" viewBox="0 0 44 44">
  <g id="Grupo_2016" data-name="Grupo 2016" transform="translate(-277 -4894)">
    <circle id="Elipse_13" data-name="Elipse 13" cx="22" cy="22" r="22" transform="translate(277 4894)" fill="#1b3d5e"/>
    <path id="Icon_simple-instagram" data-name="Icon simple-instagram" d="M10.9,0C7.936,0,7.566.014,6.4.065A8.034,8.034,0,0,0,3.759.572a5.336,5.336,0,0,0-1.93,1.257A5.316,5.316,0,0,0,.572,3.759,8.011,8.011,0,0,0,.065,6.4C.011,7.566,0,7.936,0,10.9s.014,3.329.065,4.492a8.039,8.039,0,0,0,.507,2.645,5.343,5.343,0,0,0,1.257,1.93,5.328,5.328,0,0,0,1.93,1.257,8.044,8.044,0,0,0,2.645.507c1.162.054,1.532.065,4.492.065s3.329-.014,4.492-.065a8.063,8.063,0,0,0,2.645-.507,5.568,5.568,0,0,0,3.187-3.187,8.039,8.039,0,0,0,.507-2.645c.054-1.162.065-1.532.065-4.492s-.014-3.329-.065-4.492a8.058,8.058,0,0,0-.507-2.645,5.347,5.347,0,0,0-1.257-1.93A5.309,5.309,0,0,0,18.032.572,8.016,8.016,0,0,0,15.387.065C14.225.011,13.855,0,10.9,0Zm0,1.961c2.908,0,3.255.015,4.4.064a6,6,0,0,1,2.022.377A3.585,3.585,0,0,1,19.389,4.47a6.016,6.016,0,0,1,.375,2.022c.052,1.149.064,1.494.064,4.4s-.014,3.255-.067,4.4a6.132,6.132,0,0,1-.382,2.022,3.46,3.46,0,0,1-.816,1.255,3.4,3.4,0,0,1-1.253.814,6.06,6.06,0,0,1-2.029.375c-1.157.052-1.5.064-4.412.064s-3.256-.014-4.412-.067a6.178,6.178,0,0,1-2.03-.382,3.374,3.374,0,0,1-1.252-.816,3.308,3.308,0,0,1-.817-1.253,6.183,6.183,0,0,1-.381-2.029c-.041-1.144-.055-1.5-.055-4.4s.015-3.256.055-4.414A6.176,6.176,0,0,1,2.357,4.44a3.23,3.23,0,0,1,.817-1.254,3.223,3.223,0,0,1,1.252-.815,6.03,6.03,0,0,1,2.017-.382c1.158-.041,1.5-.054,4.412-.054l.041.027Zm0,3.339A5.595,5.595,0,1,0,16.49,10.9,5.594,5.594,0,0,0,10.9,5.3Zm0,9.227A3.632,3.632,0,1,1,14.527,10.9,3.631,3.631,0,0,1,10.9,14.527ZM18.019,5.08a1.307,1.307,0,1,1-1.307-1.307A1.308,1.308,0,0,1,18.019,5.08Z" transform="translate(288.105 4905)" fill="#fff"/>
  </g>
</svg>
