<svg xmlns="http://www.w3.org/2000/svg" width="44" height="44" viewBox="0 0 44 44">
  <g id="Grupo_2015" data-name="Grupo 2015" transform="translate(-184 -4894)">
    <circle id="Elipse_12" data-name="Elipse 12" cx="22" cy="22" r="22" transform="translate(184 4894)" fill="#1b3d5e"/>
    <path id="Icon_awesome-twitter" data-name="Icon awesome-twitter" d="M24.072,8.811c.017.238.017.477.017.715A15.538,15.538,0,0,1,8.444,25.172,15.539,15.539,0,0,1,0,22.7a11.376,11.376,0,0,0,1.328.068,11.013,11.013,0,0,0,6.827-2.349,5.509,5.509,0,0,1-5.141-3.813,6.934,6.934,0,0,0,1.039.085A5.816,5.816,0,0,0,5.5,16.506a5.5,5.5,0,0,1-4.409-5.4v-.068a5.538,5.538,0,0,0,2.486.7,5.507,5.507,0,0,1-1.7-7.354,15.63,15.63,0,0,0,11.338,5.754,6.207,6.207,0,0,1-.136-1.26,5.5,5.5,0,0,1,9.517-3.762,10.826,10.826,0,0,0,3.49-1.328,5.484,5.484,0,0,1-2.417,3.03,11.024,11.024,0,0,0,3.166-.851,11.82,11.82,0,0,1-2.758,2.843Z" transform="translate(192.585 4901.619)" fill="#fff"/>
  </g>
</svg>
